<?xml version="1.0" encoding="UTF-8"?>
<svg version="1.1" xmlns="http://www.w3.org/2000/svg" width="96" height="96">
<path d="M0 0 C1.30177689 -0.00960754 2.60355377 -0.01921509 3.94477844 -0.02911377 C5.3683759 -0.03396215 6.7919754 -0.03824088 8.21557617 -0.04199219 C9.67665101 -0.04774641 11.13772584 -0.05350411 12.59880066 -0.05926514 C15.66287589 -0.06976794 18.72692493 -0.07561512 21.79101562 -0.07910156 C25.70839593 -0.08458084 29.62542771 -0.10859945 33.54269886 -0.13707352 C36.56167089 -0.1557416 39.58055972 -0.16090773 42.59958458 -0.16243744 C44.04321889 -0.16545576 45.48685203 -0.17345654 46.93042946 -0.18662262 C48.95485121 -0.20376635 50.97941722 -0.19994607 53.00390625 -0.1953125 C54.15401688 -0.19895813 55.3041275 -0.20260376 56.48908997 -0.20635986 C61.41583915 0.35820817 64.6559099 2.03666252 68.00854492 5.66113281 C70.71462935 9.67014678 70.82902265 12.73248065 70.85717773 17.46508789 C70.86678528 18.76686478 70.87639282 20.06864166 70.8862915 21.40986633 C70.89113989 22.83346379 70.89541862 24.25706329 70.89916992 25.68066406 C70.90492415 27.14173891 70.91068185 28.60281373 70.91644287 30.06388855 C70.92694567 33.12796378 70.93279286 36.19201282 70.9362793 39.25610352 C70.94175858 43.17348382 70.96577718 47.0905156 70.99425125 51.00778675 C71.01291933 54.02675878 71.01808547 57.04564761 71.01961517 60.06467247 C71.0226335 61.50830678 71.03063428 62.95193992 71.04380035 64.39551735 C71.06094408 66.4199391 71.0571238 68.44450511 71.05249023 70.46899414 C71.05795868 72.19416008 71.05795868 72.19416008 71.0635376 73.95417786 C70.49896957 78.88092704 68.82051522 82.12099779 65.19604492 85.47363281 C61.18703096 88.17971724 58.12469709 88.29411055 53.39208984 88.32226562 C52.09031296 88.33187317 50.78853607 88.34148071 49.4473114 88.35137939 C48.02371394 88.35622778 46.60011444 88.36050651 45.17651367 88.36425781 C43.71543883 88.37001204 42.254364 88.37576974 40.79328918 88.38153076 C37.72921396 88.39203356 34.66516491 88.39788075 31.60107422 88.40136719 C27.68369391 88.40684647 23.76666213 88.43086507 19.84939098 88.45933914 C16.83041896 88.47800722 13.81153013 88.48317336 10.79250526 88.48470306 C9.34887095 88.48772139 7.90523782 88.49572217 6.46166039 88.50888824 C4.43723864 88.52603197 2.41267263 88.52221169 0.38818359 88.51757812 C-1.33698235 88.52304657 -1.33698235 88.52304657 -3.09700012 88.52862549 C-8.02374931 87.96405746 -11.26382006 86.28560311 -14.61645508 82.66113281 C-17.3225395 78.65211885 -17.43693281 75.58978498 -17.46508789 70.85717773 C-17.47469543 69.55540085 -17.48430298 68.25362396 -17.49420166 66.91239929 C-17.49905005 65.48880183 -17.50332877 64.06520234 -17.50708008 62.64160156 C-17.5128343 61.18052672 -17.518592 59.71945189 -17.52435303 58.25837708 C-17.53485583 55.19430185 -17.54070301 52.1302528 -17.54418945 49.06616211 C-17.54966873 45.1487818 -17.57368734 41.23175002 -17.60216141 37.31447887 C-17.62082949 34.29550685 -17.62599562 31.27661802 -17.62752533 28.25759315 C-17.63054365 26.81395884 -17.63854443 25.37032571 -17.65171051 23.92674828 C-17.66885424 21.90232653 -17.66503396 19.87776052 -17.66040039 17.85327148 C-17.66404602 16.70316086 -17.66769165 15.55305023 -17.67144775 14.36808777 C-17.10687972 9.44133858 -15.42842537 6.20126783 -11.80395508 2.84863281 C-7.79494111 0.14254839 -4.73260724 0.02815508 0 0 Z " fill="#F6F6F7" transform="translate(21.303955078125,3.8388671875)"/>
<path d="M0 0 C17 0 17 0 23 4 C25.83160532 8.24740799 25.64522317 12.01346043 25 17 C23.22553637 20.15460202 21.84450384 21.50737276 18.75 23.3125 C15.06432532 24.23391867 11.79605497 24.12867983 8 24 C8 28.29 8 32.58 8 37 C5.36 37 2.72 37 0 37 C0 24.79 0 12.58 0 0 Z " fill="#030405" transform="translate(26,30)"/>
<path d="M0 0 C0.60328125 0.05800781 1.2065625 0.11601562 1.828125 0.17578125 C1.828125 2.15578125 1.828125 4.13578125 1.828125 6.17578125 C0.178125 6.50578125 -1.471875 6.83578125 -3.171875 7.17578125 C-3.501875 8.82578125 -3.831875 10.47578125 -4.171875 12.17578125 C-2.521875 12.17578125 -0.871875 12.17578125 0.828125 12.17578125 C0.828125 14.15578125 0.828125 16.13578125 0.828125 18.17578125 C-0.821875 18.17578125 -2.471875 18.17578125 -4.171875 18.17578125 C-4.171875 25.43578125 -4.171875 32.69578125 -4.171875 40.17578125 C-6.811875 40.17578125 -9.451875 40.17578125 -12.171875 40.17578125 C-12.171875 32.91578125 -12.171875 25.65578125 -12.171875 18.17578125 C-13.161875 18.17578125 -14.151875 18.17578125 -15.171875 18.17578125 C-15.171875 16.19578125 -15.171875 14.21578125 -15.171875 12.17578125 C-14.181875 12.17578125 -13.191875 12.17578125 -12.171875 12.17578125 C-12.089375 11.12390625 -12.006875 10.07203125 -11.921875 8.98828125 C-10.39711247 1.23740505 -7.45339512 -0.42075618 0 0 Z " fill="#060707" transform="translate(71.171875,26.82421875)"/>
<path d="M0 0 C6.32597793 -0.35807422 6.32597793 -0.35807422 9 1.0625 C10.61647822 4.19442656 9.78665296 6.67185286 9 10 C7 12 7 12 3.375 12.125 C2.26125 12.08375 1.1475 12.0425 0 12 C0 8.04 0 4.08 0 0 Z " fill="#F6F6F6" transform="translate(34,36)"/>
</svg>
